PathFileType	4	(X/Y/Z)	/Users/niels/Desktop/University/Third Semester/Perception and Action/Exam/Gymnastics Motion Tracking/Code for Gym Tracking/Scripts/Analyzed Data/Start Salto/st_salto_good_id13_1_Sports2D/st_salto_good_id13_1_Sports2D_px_person00.trc
DataRate	CameraRate	NumFrames	NumMarkers	Units	OrigDataRate	OrigDataStartFrame	OrigNumFrames
29.82456140350877	29.82456140350877	8	22	m	29.82456140350877	85	171
Frame#	Time	Hip			RHip			RKnee			RAnkle			RBigToe			RSmallToe			RHeel			LHip			LKnee			LAnkle			LBigToe			LSmallToe			LHeel			Neck			Head			Nose			RShoulder			RElbow			RWrist			LShoulder			LElbow			LWrist		
		X1	Y1	Z1	X2	Y2	Z2	X3	Y3	Z3	X4	Y4	Z4	X5	Y5	Z5	X6	Y6	Z6	X7	Y7	Z7	X8	Y8	Z8	X9	Y9	Z9	X10	Y10	Z10	X11	Y11	Z11	X12	Y12	Z12	X13	Y13	Z13	X14	Y14	Z14	X15	Y15	Z15	X16	Y16	Z16	X17	Y17	Z17	X18	Y18	Z18	X19	Y19	Z19	X20	Y20	Z20	X21	Y21	Z21	X22	Y22	Z22
85	2.85	1.3505284868818614	-0.32090559150712483	0.0	1.3617801329576777	-0.3183863763502234	0.0	1.273386843836453	-0.21571399646672834	0.0	1.378986496389587	-0.1606449216519253	0.0	1.3758036732861219	-0.10000905789638578	0.0	1.3886892195521423	-0.11214141193245561	0.0	1.3944409068684689	-0.16466408493280815	0.0	1.3354497280629394	-0.31741835711501065	0.0	1.25921877736592	-0.2166821414093073	0.0	1.364457396869651	-0.16233601050223664	0.0	1.3735604118304454	-0.1011576117380543	0.0	1.3669689204633413	-0.1054088732200108	0.0	1.3887186870182016	-0.16063321237087066	0.0	1.1926017436516432	-0.36132805522814837	0.0	1.1087605439871913	-0.33582578236022176	0.0	1.165842411779692	-0.3186472974770832	0.0	1.226607096435991	-0.3668369173114604	0.0	1.2793688031768942	-0.2787057715674739	0.0	1.262367235339877	-0.20872493361087513	0.0	1.1906796245833586	-0.3717987297945455	0.0	1.1989024694929185	-0.28244493538729193	0.0	1.2038989239351694	-0.2182743932572501	0.0
86	2.883529411764706	1.364158986086743	-0.32837743620572574	0.0	1.3750552854566784	-0.326745853915907	0.0	1.2974290829843076	-0.2162937986334853	0.0	1.4080170091997966	-0.17209834890818101	0.0	1.4112271406831232	-0.1126046046325327	0.0	1.4230056532732707	-0.12465308184226451	0.0	1.4240983180988767	-0.17731359350928375	0.0	1.3492754557137339	-0.3238396728911673	0.0	1.2855707004394523	-0.21621536583570794	0.0	1.3940027078598811	-0.16936242271342558	0.0	1.407822193834766	-0.10983676940756443	0.0	1.400397485261155	-0.11386888429915022	0.0	1.416628078445462	-0.16899377055421133	0.0	1.2034796382469266	-0.3545814156759456	0.0	1.1211001334875246	-0.32026922724817275	0.0	1.1807987062634562	-0.30779860653758223	0.0	1.2352656164171074	-0.3611942792515375	0.0	1.2902839976613698	-0.27437211114228394	0.0	1.278570224073086	-0.204746781613047	0.0	1.1988477553639216	-0.36614702067358296	0.0	1.2112455617152227	-0.27649946609668113	0.0	1.2174919150613415	-0.212443930619365	0.0
87	2.9170588235294117	1.3771122616271998	-0.33570581908818253	0.0	1.387550071023251	-0.33530580802642523	0.0	1.3205826327300458	-0.21885945222464137	0.0	1.4367396529130165	-0.1856645710113605	0.0	1.4454585370133142	-0.12757062064891675	0.0	1.4562295922051138	-0.13880232743902163	0.0	1.4531661008046661	-0.19220396988350924	0.0	1.3623353839199401	-0.3305874520866144	0.0	1.3118392330249644	-0.21848229979722833	0.0	1.4233727225378257	-0.17813883365793995	0.0	1.4413304301460013	-0.12082916417079269	0.0	1.4332737390788892	-0.12430665804489813	0.0	1.4433083656881929	-0.17946626376867808	0.0	1.214121178202601	-0.3480718864902639	0.0	1.134216356454201	-0.3054027008808244	0.0	1.1959626801021639	-0.29798588642611534	0.0	1.2426557355054817	-0.3554516601962025	0.0	1.3015201930649758	-0.26931616226448246	0.0	1.2943966676008694	-0.20059757895273808	0.0	1.2066758268829776	-0.3595901762564074	0.0	1.223785140967798	-0.2712563877680997	0.0	1.231403494361018	-0.20732181684158185	0.0
88	2.9505882352941177	1.389679862046894	-0.34297696462787675	0.0	1.399581849185825	-0.34386945912745204	0.0	1.3433733595496704	-0.22278193040920863	0.0	1.4653741546558967	-0.20135791778378484	0.0	1.4789147293798979	-0.14486676959770065	0.0	1.4887764810175985	-0.15481193971712684	0.0	1.4818065253599366	-0.2096123736970111	0.0	1.3749685631845368	-0.33797975449721246	0.0	1.3383083917486958	-0.2230689763022422	0.0	1.452200756680079	-0.18883645641765875	0.0	1.4737167690201451	-0.13382706174648473	0.0	1.464936923329873	-0.13658613079266047	0.0	1.4689247715665221	-0.19206305439623203	0.0	1.2247138708050385	-0.3416079851021668	0.0	1.1483616888859491	-0.2910178176100857	0.0	1.2116649703821576	-0.28914459797499686	0.0	1.2499396089916852	-0.34951285391447584	0.0	1.3131600985550522	-0.26419419932313537	0.0	1.3102890155173472	-0.19617660236576034	0.0	1.214377189553989	-0.3526353024071353	0.0	1.2365764267346673	-0.2664166922483689	0.0	1.2457869332717024	-0.20266829860841667	0.0
89	2.9841176470588238	1.4018951691864743	-0.35030970808045464	0.0	1.4112385046429834	-0.35203605925470755	0.0	1.3664166321754236	-0.227124210863405	0.0	1.4935729604188808	-0.21886604336954746	0.0	1.5116303921299985	-0.1641856957311764	0.0	1.5206476062101602	-0.17302034419118867	0.0	1.509593931479141	-0.22926865834719767	0.0	1.3871621417491706	-0.34605467091005687	0.0	1.3647609829169414	-0.22886443152079192	0.0	1.4797593912892586	-0.2010300023533713	0.0	1.5039468219200276	-0.14800643301634636	0.0	1.494282166780721	-0.1502154993085158	0.0	1.4932958029944985	-0.20603225535941164	0.0	1.2354639617553322	-0.3351123982691128	0.0	1.1636425821014327	-0.2771064102418527	0.0	1.2281146926565212	-0.2814011199082279	0.0	1.2583780162180245	-0.3434198898982659	0.0	1.3250481579321074	-0.2597797565605633	0.0	1.3262187430776269	-0.1915478552528677	0.0	1.2221583126504343	-0.345834795834457	0.0	1.2494406391447328	-0.2617244891247834	0.0	1.2604520690913583	-0.1983251132004126	0.0
90	3.0176470588235293	1.4134638382085716	-0.35783362545179204	0.0	1.4223485533500042	-0.35952826019725664	0.0	1.3901008706909717	-0.23119237303716555	0.0	1.5206425486165478	-0.23762262580678745	0.0	1.5432393972454472	-0.18491014119958887	0.0	1.5513413191129586	-0.1933852227638246	0.0	1.5358127953745169	-0.25027071964705977	0.0	1.398556583887613	-0.35460054127033663	0.0	1.3905262087315715	-0.23496534804660135	0.0	1.5053964395899782	-0.2142119657777057	0.0	1.531176620156902	-0.16276757432717462	0.0	1.5206574762447536	-0.16484142021656975	0.0	1.516242734957504	-0.22059358177231064	0.0	1.2465293595024909	-0.3286676114722986	0.0	1.1800227574498041	-0.2638639593978536	0.0	1.2452773950827198	-0.27476250625300913	0.0	1.268643165206718	-0.33728288269901685	0.0	1.337018460366755	-0.25630340548526565	0.0	1.3419174895547115	-0.18673746752394713	0.0	1.2302836504397217	-0.3394907604191575	0.0	1.2621766934797634	-0.257268835396068	0.0	1.2750138114039453	-0.19415346641207054	0.0
91	3.0511764705882354	1.4241200209964378	-0.36565476599672103	0.0	1.4327725396255067	-0.36648772547359887	0.0	1.4146088367600784	-0.23501422097125665	0.0	1.54612434899572	-0.2571635904175201	0.0	1.5735365732033018	-0.2065486819942314	0.0	1.580398388038421	-0.21559662536336519	0.0	1.5600574930003344	-0.27157023172142	0.0	1.408893943002561	-0.3631918108306511	0.0	1.4150961365087873	-0.241132035449842	0.0	1.529114762039801	-0.2282758647693104	0.0	1.5557828002799832	-0.1782785028081155	0.0	1.5447309654411052	-0.18060501632709453	0.0	1.538004066235901	-0.2356131690379099	0.0	1.2580986748430791	-0.3224166956967816	0.0	1.1976115397135076	-0.2516150996744594	0.0	1.2630408248365819	-0.26890791616871074	0.0	1.2807317609317572	-0.33119464657420716	0.0	1.349114653948546	-0.2532931200652246	0.0	1.3572875216383133	-0.18161807054900372	0.0	1.2392406167675352	-0.333492638528421	0.0	1.2748079693622363	-0.25328637259811193	0.0	1.2892763841205772	-0.189952327959461	0.0
92	3.0847058823529414	1.4339413841604252	-0.3736959796708695	0.0	1.4426393918754996	-0.3733409871034181	0.0	1.4401092079752402	-0.23930155897167865	0.0	1.5700737318166371	-0.2774541581108863	0.0	1.6027801643613822	-0.22932515974060658	0.0	1.6078882052713481	-0.239682435437963	0.0	1.5824589691282078	-0.2927301509796136	0.0	1.4183376273212267	-0.3711799380351345	0.0	1.438512655499445	-0.247459250412229	0.0	1.551539000706009	-0.24352645403309345	0.0	1.5792812474677167	-0.1952473488595705	0.0	1.568145645455194	-0.19790452215446722	0.0	1.5590723758967855	-0.2515930489821573	0.0	1.270412802754607	-0.31646383452822086	0.0	1.2166643374001218	-0.24068706678988583	0.0	1.2813800419748005	-0.2634330751836245	0.0	1.294276576422597	-0.32524193775304305	0.0	1.3615682177086832	-0.2500806281338889	0.0	1.3725153020010123	-0.17605656887594215	0.0	1.2496240647999914	-0.32751366015707434	0.0	1.2875542178877937	-0.24982208743669454	0.0	1.3033804315828723	-0.18556338293795124	0.0
